<svg id="Layer_1" data-name="Layer 1" xmlns="http://www.w3.org/2000/svg" viewBox="0 0 512 512"><defs><style>.cls-1{fill:#fff;}</style></defs><title>cart-outline</title><path class="cls-1" d="M490.67,192H396.38L317.19,53.42a21.33,21.33,0,1,0-37,21.17L347.24,192H164.76l67.1-117.42a21.33,21.33,0,1,0-37-21.17L115.62,192H21.33a21.33,21.33,0,1,0,0,42.67h3.53L64.34,451.81a21.33,21.33,0,0,0,21,17.52H426.67a21.33,21.33,0,0,0,21-17.52l39.48-217.15h3.53a21.33,21.33,0,1,0,0-42.67Zm-81.8,234.67H103.14l-34.91-192H443.77Z"/></svg>