<svg width="28" height="28" viewBox="0 0 28 28" fill="none" xmlns="http://www.w3.org/2000/svg">
<g filter="url(#filter0_dd_36_360)">
<path d="M19.8594 12.9688C18.7017 12.9688 17.6731 13.5313 17.0321 14.3973L11.5138 11.5772C11.6063 11.2627 11.6562 10.93 11.6562 10.5859C11.6562 10.1199 11.5649 9.67484 11.3995 9.26746L17.183 5.79254C17.8284 6.54996 18.7887 7.03125 19.8594 7.03125C21.7979 7.03125 23.375 5.45414 23.375 3.51562C23.375 1.57711 21.7979 0 19.8594 0C17.9209 0 16.3438 1.57711 16.3438 3.51562C16.3438 3.96367 16.4282 4.3923 16.5816 4.78672L10.7836 8.27031C10.1388 7.53523 9.19301 7.07031 8.14062 7.07031C6.20211 7.07031 4.625 8.64742 4.625 10.5859C4.625 12.5245 6.20211 14.1016 8.14062 14.1016C9.31727 14.1016 10.3606 13.5205 10.9991 12.6302L16.5014 15.4421C16.399 15.7716 16.3438 16.1216 16.3438 16.4844C16.3438 18.4229 17.9209 20 19.8594 20C21.7979 20 23.375 18.4229 23.375 16.4844C23.375 14.5459 21.7979 12.9688 19.8594 12.9688ZM19.8594 1.17188C21.1517 1.17188 22.2031 2.22328 22.2031 3.51562C22.2031 4.80797 21.1517 5.85938 19.8594 5.85938C18.567 5.85938 17.5156 4.80797 17.5156 3.51562C17.5156 2.22328 18.567 1.17188 19.8594 1.17188ZM8.14062 12.9297C6.84828 12.9297 5.79688 11.8783 5.79688 10.5859C5.79688 9.29359 6.84828 8.24219 8.14062 8.24219C9.43297 8.24219 10.4844 9.29359 10.4844 10.5859C10.4844 11.8783 9.43297 12.9297 8.14062 12.9297ZM19.8594 18.8281C18.567 18.8281 17.5156 17.7767 17.5156 16.4844C17.5156 15.192 18.567 14.1406 19.8594 14.1406C21.1517 14.1406 22.2031 15.192 22.2031 16.4844C22.2031 17.7767 21.1517 18.8281 19.8594 18.8281Z" fill="white"/>
</g>
<defs>
<filter id="filter0_dd_36_360" x="0" y="0" width="28" height="28" filterUnits="userSpaceOnUse" color-interpolation-filters="sRGB">
<feFlood flood-opacity="0" result="BackgroundImageFix"/>
<feColorMatrix in="SourceAlpha" type="matrix" values="0 0 0 0 0 0 0 0 0 0 0 0 0 0 0 0 0 0 127 0" result="hardAlpha"/>
<feOffset dy="4"/>
<feGaussianBlur stdDeviation="2"/>
<feComposite in2="hardAlpha" operator="out"/>
<feColorMatrix type="matrix" values="0 0 0 0 0 0 0 0 0 0 0 0 0 0 0 0 0 0 0.25 0"/>
<feBlend mode="normal" in2="BackgroundImageFix" result="effect1_dropShadow_36_360"/>
<feColorMatrix in="SourceAlpha" type="matrix" values="0 0 0 0 0 0 0 0 0 0 0 0 0 0 0 0 0 0 127 0" result="hardAlpha"/>
<feOffset dy="4"/>
<feGaussianBlur stdDeviation="2"/>
<feComposite in2="hardAlpha" operator="out"/>
<feColorMatrix type="matrix" values="0 0 0 0 0 0 0 0 0 0 0 0 0 0 0 0 0 0 0.25 0"/>
<feBlend mode="normal" in2="effect1_dropShadow_36_360" result="effect2_dropShadow_36_360"/>
<feBlend mode="normal" in="SourceGraphic" in2="effect2_dropShadow_36_360" result="shape"/>
</filter>
</defs>
</svg>
